# xmcd
#
# Track frame offsets: 
#        150
#        21850
#        44012
#        64463
#        85655
#        108522
#        122150
#        144191
#        156293
#        172938
#
# Disc length: 2648 seconds
#
# Revision: 0
# Processed by: cddbd v1.5.2PL0 Copyright (c) Steve Scherf et al.
# Submitted via: ExactAudioCopy v0.99pb4
#
DISCID=840a560a
DTITLE=Stiller Has - so verdorbe
DYEAR=2009
DGENRE=Blues
TTITLE0=König
TTITLE1=so verdorbe
TTITLE2=chlyne tod
TTITLE3=d'helfti
TTITLE4=schifahre
TTITLE5=in cerca di te
TTITLE6=venedig
TTITLE7=guarda che luna
TTITLE8=justine
TTITLE9=merci
EXTD=
EXTT0=König
EXTT1=
EXTT2=
EXTT3=
EXTT4=
EXTT5=
EXTT6=
EXTT7=
EXTT8=
EXTT9=
PLAYORDER=
